<svg width="15" height="22" viewBox="0 0 15 22" fill="none" xmlns="http://www.w3.org/2000/svg">
<mask id="path-1-outside-1_128_1893" maskUnits="userSpaceOnUse" x="-2" y="-2" width="20" height="26" fill="black">
<rect fill="white" x="-2" y="-2" width="20" height="26"/>
<path d="M7.50547 0.615999C5.34947 0.615999 3.64147 1.176 2.38147 2.324C1.23347 3.332 0.673469 4.592 0.673469 6.104C0.673469 7.112 0.897469 7.98 1.34547 8.68C1.82147 9.408 2.54947 9.996 3.55747 10.388V10.444C2.60547 10.696 1.82147 11.256 1.14947 12.124C0.365469 13.076 0.00146879 14.168 0.00146879 15.4C0.00146879 17.192 0.645469 18.62 1.96147 19.74C3.24947 20.832 5.09747 21.392 7.50547 21.392C9.88547 21.392 11.7335 20.832 13.0495 19.74C14.3375 18.62 15.0095 17.192 15.0095 15.4C15.0095 14.168 14.6175 13.076 13.8615 12.124C13.1895 11.256 12.3775 10.696 11.4535 10.444V10.388C12.4335 9.996 13.1615 9.408 13.6655 8.68C14.1135 7.98 14.3375 7.112 14.3375 6.104C14.3375 4.592 13.7495 3.332 12.6295 2.324C11.3415 1.176 9.63347 0.615999 7.50547 0.615999ZM7.50547 3.22C8.68147 3.22 9.60547 3.528 10.3335 4.172C10.9495 4.732 11.2575 5.404 11.2575 6.216C11.2575 7.14 11.0055 7.868 10.5015 8.4C9.88547 9.044 8.87747 9.38 7.50547 9.38C6.10547 9.38 5.12547 9.044 4.50947 8.4C4.00547 7.868 3.75347 7.14 3.75347 6.216C3.75347 5.404 4.06147 4.732 4.67747 4.172C5.37747 3.528 6.32947 3.22 7.50547 3.22ZM7.50547 11.816C8.90547 11.816 9.96947 12.152 10.7255 12.852C11.3975 13.468 11.7615 14.336 11.7615 15.4C11.7615 16.408 11.3975 17.192 10.6975 17.808C9.91347 18.424 8.84947 18.76 7.50547 18.76C6.13347 18.76 5.09747 18.452 4.36947 17.836C3.61347 17.22 3.24947 16.408 3.24947 15.4C3.24947 14.336 3.58547 13.468 4.31347 12.824C5.04147 12.152 6.10547 11.816 7.50547 11.816Z"/>
</mask>
<path d="M7.50547 0.615999C5.34947 0.615999 3.64147 1.176 2.38147 2.324C1.23347 3.332 0.673469 4.592 0.673469 6.104C0.673469 7.112 0.897469 7.98 1.34547 8.68C1.82147 9.408 2.54947 9.996 3.55747 10.388V10.444C2.60547 10.696 1.82147 11.256 1.14947 12.124C0.365469 13.076 0.00146879 14.168 0.00146879 15.4C0.00146879 17.192 0.645469 18.62 1.96147 19.74C3.24947 20.832 5.09747 21.392 7.50547 21.392C9.88547 21.392 11.7335 20.832 13.0495 19.74C14.3375 18.62 15.0095 17.192 15.0095 15.4C15.0095 14.168 14.6175 13.076 13.8615 12.124C13.1895 11.256 12.3775 10.696 11.4535 10.444V10.388C12.4335 9.996 13.1615 9.408 13.6655 8.68C14.1135 7.98 14.3375 7.112 14.3375 6.104C14.3375 4.592 13.7495 3.332 12.6295 2.324C11.3415 1.176 9.63347 0.615999 7.50547 0.615999ZM7.50547 3.22C8.68147 3.22 9.60547 3.528 10.3335 4.172C10.9495 4.732 11.2575 5.404 11.2575 6.216C11.2575 7.14 11.0055 7.868 10.5015 8.4C9.88547 9.044 8.87747 9.38 7.50547 9.38C6.10547 9.38 5.12547 9.044 4.50947 8.4C4.00547 7.868 3.75347 7.14 3.75347 6.216C3.75347 5.404 4.06147 4.732 4.67747 4.172C5.37747 3.528 6.32947 3.22 7.50547 3.22ZM7.50547 11.816C8.90547 11.816 9.96947 12.152 10.7255 12.852C11.3975 13.468 11.7615 14.336 11.7615 15.4C11.7615 16.408 11.3975 17.192 10.6975 17.808C9.91347 18.424 8.84947 18.76 7.50547 18.76C6.13347 18.76 5.09747 18.452 4.36947 17.836C3.61347 17.22 3.24947 16.408 3.24947 15.4C3.24947 14.336 3.58547 13.468 4.31347 12.824C5.04147 12.152 6.10547 11.816 7.50547 11.816Z" fill="white"/>
<path d="M2.38147 2.324L3.70107 3.82688L3.71487 3.81476L3.72845 3.80239L2.38147 2.324ZM1.34547 8.68L-0.339074 9.75811L-0.333812 9.76633L-0.32847 9.7745L1.34547 8.68ZM3.55747 10.388H5.55747V9.01987L4.28236 8.52399L3.55747 10.388ZM3.55747 10.444L4.06925 12.3774L5.55747 11.9835V10.444H3.55747ZM1.14947 12.124L2.69333 13.3954L2.71248 13.3722L2.73092 13.3483L1.14947 12.124ZM1.96147 19.74L0.665229 21.2631L0.668098 21.2655L1.96147 19.74ZM13.0495 19.74L14.3266 21.2791L14.3444 21.2644L14.3618 21.2492L13.0495 19.74ZM13.8615 12.124L12.28 13.3483L12.2876 13.3581L12.2952 13.3678L13.8615 12.124ZM11.4535 10.444H9.45347V11.9716L10.9272 12.3735L11.4535 10.444ZM11.4535 10.388L10.7107 8.53105L9.45347 9.03393V10.388H11.4535ZM13.6655 8.68L15.3099 9.81842L15.3305 9.78863L15.35 9.7581L13.6655 8.68ZM12.6295 2.324L13.9674 0.837393L13.9602 0.830971L12.6295 2.324ZM10.3335 4.172L11.6788 2.69212L11.6688 2.68299L11.6586 2.67401L10.3335 4.172ZM10.5015 8.4L11.9468 9.78246L11.9534 9.77549L10.5015 8.4ZM4.50947 8.4L3.05755 9.77551L3.06419 9.78244L4.50947 8.4ZM4.67747 4.172L6.02284 5.65191L6.03158 5.64386L4.67747 4.172ZM10.7255 12.852L9.36664 14.3195L9.37402 14.3263L10.7255 12.852ZM10.6975 17.808L11.9331 19.3806L11.9769 19.3462L12.0187 19.3094L10.6975 17.808ZM4.36947 17.836L5.66135 16.3092L5.64719 16.2972L5.63281 16.2855L4.36947 17.836ZM4.31347 12.824L5.63862 14.322L5.65447 14.308L5.67003 14.2936L4.31347 12.824ZM7.50547 -1.384C4.99991 -1.384 2.7597 -0.726251 1.03449 0.845605L3.72845 3.80239C4.52324 3.07825 5.69903 2.616 7.50547 2.616V-1.384ZM1.06187 0.821118C-0.523578 2.21322 -1.32653 4.02313 -1.32653 6.104H2.67347C2.67347 5.16087 2.99052 4.45078 3.70107 3.82688L1.06187 0.821118ZM-1.32653 6.104C-1.32653 7.40609 -1.03587 8.66937 -0.339074 9.75811L3.03001 7.60189C2.8308 7.29063 2.67347 6.81791 2.67347 6.104H-1.32653ZM-0.32847 9.7745C0.403093 10.8934 1.4848 11.7279 2.83258 12.252L4.28236 8.52399C3.61414 8.26413 3.23984 7.92264 3.01941 7.5855L-0.32847 9.7745ZM1.55747 10.388V10.444H5.55747V10.388H1.55747ZM3.04569 8.51059C1.59957 8.89338 0.461509 9.74557 -0.431979 10.8997L2.73092 13.3483C3.18143 12.7664 3.61137 12.4986 4.06925 12.3774L3.04569 8.51059ZM-0.394391 10.8526C-1.49317 12.1868 -1.99853 13.7364 -1.99853 15.4H2.00147C2.00147 14.5996 2.22411 13.9652 2.69333 13.3954L-0.394391 10.8526ZM-1.99853 15.4C-1.99853 17.7523 -1.11671 19.7465 0.665232 21.2631L3.25771 18.2169C2.40765 17.4935 2.00147 16.6317 2.00147 15.4H-1.99853ZM0.668098 21.2655C2.43826 22.7663 4.81084 23.392 7.50547 23.392V19.392C5.3841 19.392 4.06068 18.8977 3.25484 18.2145L0.668098 21.2655ZM7.50547 23.392C10.1824 23.392 12.5398 22.7618 14.3266 21.2791L11.7723 18.2009C10.9271 18.9022 9.58859 19.392 7.50547 19.392V23.392ZM14.3618 21.2492C16.0854 19.7504 17.0095 17.7725 17.0095 15.4H13.0095C13.0095 16.6115 12.5895 17.4896 11.7371 18.2308L14.3618 21.2492ZM17.0095 15.4C17.0095 13.7068 16.4586 12.1784 15.4277 10.8802L12.2952 13.3678C12.7763 13.9736 13.0095 14.6292 13.0095 15.4H17.0095ZM15.4429 10.8997C14.5381 9.73096 13.3719 8.89417 11.9797 8.51447L10.9272 12.3735C11.383 12.4978 11.8408 12.781 12.28 13.3483L15.4429 10.8997ZM13.4535 10.444V10.388H9.45347V10.444H13.4535ZM12.1963 12.245C13.5149 11.7175 14.567 10.8914 15.3099 9.81842L12.0211 7.54158C11.7559 7.92455 11.3521 8.2745 10.7107 8.53105L12.1963 12.245ZM15.35 9.7581C16.0468 8.66937 16.3375 7.40609 16.3375 6.104H12.3375C12.3375 6.8179 12.1801 7.29063 11.9809 7.60189L15.35 9.7581ZM16.3375 6.104C16.3375 4.00053 15.4903 2.20799 13.9674 0.837411L11.2915 3.81059C12.0087 4.45601 12.3375 5.18347 12.3375 6.104H16.3375ZM13.9602 0.830971C12.2186 -0.721373 9.99313 -1.384 7.50547 -1.384V2.616C9.27381 2.616 10.4644 3.07337 11.2987 3.81703L13.9602 0.830971ZM7.50547 5.22C8.30749 5.22 8.7233 5.41786 9.00832 5.66999L11.6586 2.67401C10.4876 1.63814 9.05545 1.22 7.50547 1.22V5.22ZM8.98812 5.65188C9.20758 5.85139 9.25747 5.99449 9.25747 6.216H13.2575C13.2575 4.81351 12.6914 3.61261 11.6788 2.69212L8.98812 5.65188ZM9.25747 6.216C9.25747 6.76771 9.11618 6.95419 9.04956 7.02451L11.9534 9.77549C12.8948 8.78181 13.2575 7.51229 13.2575 6.216H9.25747ZM9.05618 7.01756C8.97274 7.1048 8.60669 7.38 7.50547 7.38V11.38C9.14825 11.38 10.7982 10.9832 11.9468 9.78244L9.05618 7.01756ZM7.50547 7.38C6.38349 7.38 6.04154 7.10828 5.95475 7.01755L3.06419 9.78244C4.2094 10.9797 5.82745 11.38 7.50547 11.38V7.38ZM5.96137 7.02451C5.89476 6.9542 5.75347 6.76771 5.75347 6.216H1.75347C1.75347 7.51229 2.11618 8.78181 3.05756 9.77549L5.96137 7.02451ZM5.75347 6.216C5.75347 5.99449 5.80336 5.85139 6.02281 5.65188L3.33212 2.69212C2.31958 3.61261 1.75347 4.81351 1.75347 6.216H5.75347ZM6.03158 5.64386C6.26365 5.43036 6.67846 5.22 7.50547 5.22V1.22C5.98047 1.22 4.49128 1.62564 3.32336 2.70014L6.03158 5.64386ZM7.50547 13.816C8.59823 13.816 9.10297 14.0754 9.36665 14.3195L12.0843 11.3845C10.836 10.2286 9.21271 9.816 7.50547 9.816V13.816ZM9.37402 14.3263C9.57966 14.5148 9.76147 14.8203 9.76147 15.4H13.7615C13.7615 13.8517 13.2153 12.4212 12.0769 11.3777L9.37402 14.3263ZM9.76147 15.4C9.76147 15.8447 9.63619 16.0778 9.37621 16.3066L12.0187 19.3094C13.1587 18.3062 13.7615 16.9713 13.7615 15.4H9.76147ZM9.46183 16.2354C9.11205 16.5102 8.51792 16.76 7.50547 16.76V20.76C9.18102 20.76 10.7149 20.3378 11.9331 19.3806L9.46183 16.2354ZM7.50547 16.76C6.40905 16.76 5.90172 16.5126 5.66135 16.3092L3.07758 19.3628C4.29321 20.3914 5.85789 20.76 7.50547 20.76V16.76ZM5.63281 16.2855C5.37667 16.0768 5.24947 15.8516 5.24947 15.4H1.24947C1.24947 16.9644 1.85027 18.3632 3.10612 19.3865L5.63281 16.2855ZM5.24947 15.4C5.24947 14.7958 5.4178 14.5173 5.63862 14.322L2.98832 11.326C1.75313 12.4187 1.24947 13.8762 1.24947 15.4H5.24947ZM5.67003 14.2936C5.90009 14.0812 6.40069 13.816 7.50547 13.816V9.816C5.81025 9.816 4.18284 10.2228 2.95691 11.3544L5.67003 14.2936Z" fill="#353D49" fill-opacity="0.5" mask="url(#path-1-outside-1_128_1893)"/>
</svg>
