<svg width="15" height="21" viewBox="0 0 15 21" fill="none" xmlns="http://www.w3.org/2000/svg">
<mask id="path-1-outside-1_128_1890" maskUnits="userSpaceOnUse" x="-2" y="-2" width="19" height="25" fill="black">
<rect fill="white" x="-2" y="-2" width="19" height="25"/>
<path d="M1.68147 0.0079987L0.589469 11.264H3.64147C4.03347 10.564 4.56547 10.06 5.26547 9.724C5.88147 9.416 6.63747 9.276 7.50547 9.276C8.79347 9.276 9.80147 9.64 10.4735 10.424C11.1455 11.18 11.5095 12.244 11.5095 13.588C11.5095 14.82 11.0895 15.8 10.3055 16.528C9.49347 17.256 8.48547 17.62 7.30947 17.62C6.21747 17.62 5.34947 17.368 4.73347 16.92C4.00547 16.388 3.58547 15.576 3.44547 14.484H0.225469C0.365469 16.332 1.14947 17.816 2.60547 18.908C3.89347 19.888 5.46147 20.392 7.28147 20.392C9.26947 20.392 10.9775 19.804 12.4335 18.628C14.0015 17.312 14.7855 15.632 14.7855 13.56C14.7855 11.404 14.1695 9.696 12.9935 8.464C11.8175 7.232 10.2775 6.616 8.40147 6.616C7.50547 6.616 6.69347 6.756 5.96547 7.036C5.15347 7.316 4.45347 7.764 3.83747 8.38H3.75347L4.31347 2.892H13.8615V0.0079987H1.68147Z"/>
</mask>
<path d="M1.68147 0.0079987L0.589469 11.264H3.64147C4.03347 10.564 4.56547 10.06 5.26547 9.724C5.88147 9.416 6.63747 9.276 7.50547 9.276C8.79347 9.276 9.80147 9.64 10.4735 10.424C11.1455 11.18 11.5095 12.244 11.5095 13.588C11.5095 14.82 11.0895 15.8 10.3055 16.528C9.49347 17.256 8.48547 17.62 7.30947 17.62C6.21747 17.62 5.34947 17.368 4.73347 16.92C4.00547 16.388 3.58547 15.576 3.44547 14.484H0.225469C0.365469 16.332 1.14947 17.816 2.60547 18.908C3.89347 19.888 5.46147 20.392 7.28147 20.392C9.26947 20.392 10.9775 19.804 12.4335 18.628C14.0015 17.312 14.7855 15.632 14.7855 13.56C14.7855 11.404 14.1695 9.696 12.9935 8.464C11.8175 7.232 10.2775 6.616 8.40147 6.616C7.50547 6.616 6.69347 6.756 5.96547 7.036C5.15347 7.316 4.45347 7.764 3.83747 8.38H3.75347L4.31347 2.892H13.8615V0.0079987H1.68147Z" fill="white"/>
<path d="M1.68147 0.00799847V-1.992H-0.133891L-0.309185 -0.185124L1.68147 0.00799847ZM0.589469 11.264L-1.40119 11.0709L-1.61395 13.264H0.589469V11.264ZM3.64147 11.264V13.264H4.81372L5.38648 12.2412L3.64147 11.264ZM5.26547 9.724L6.13093 11.527L6.14547 11.5201L6.1599 11.5129L5.26547 9.724ZM10.4735 10.424L8.95496 11.7256L8.96668 11.7393L8.97865 11.7527L10.4735 10.424ZM10.3055 16.528L11.6406 18.0171L11.6536 18.0055L11.6664 17.9936L10.3055 16.528ZM4.73347 16.92L3.55343 18.5348L3.55713 18.5375L4.73347 16.92ZM3.44547 14.484L5.42923 14.2297L5.20543 12.484H3.44547V14.484ZM0.225469 14.484V12.484H-1.93178L-1.76882 14.6351L0.225469 14.484ZM2.60547 18.908L3.81654 17.3163L3.80547 17.308L2.60547 18.908ZM12.4335 18.628L13.6901 20.1839L13.7048 20.1721L13.7192 20.1599L12.4335 18.628ZM12.9935 8.464L11.5468 9.84495V9.84495L12.9935 8.464ZM5.96547 7.036L6.61745 8.92674L6.65065 8.9153L6.68343 8.90269L5.96547 7.036ZM3.83747 8.38V10.38H4.6659L5.25168 9.79421L3.83747 8.38ZM3.75347 8.38L1.7638 8.17697L1.539 10.38H3.75347V8.38ZM4.31347 2.892V0.892H2.50717L2.3238 2.68897L4.31347 2.892ZM13.8615 2.892V4.892H15.8615V2.892H13.8615ZM13.8615 0.00799847H15.8615V-1.992H13.8615V0.00799847ZM-0.309185 -0.185124L-1.40119 11.0709L2.58012 11.4571L3.67212 0.201122L-0.309185 -0.185124ZM0.589469 13.264H3.64147V9.264H0.589469V13.264ZM5.38648 12.2412C5.58394 11.8886 5.81421 11.6791 6.13093 11.527L4.40001 7.92095C3.31673 8.44093 2.483 9.2394 1.89646 10.2868L5.38648 12.2412ZM6.1599 11.5129C6.41252 11.3865 6.83541 11.276 7.50547 11.276V7.276C6.43953 7.276 5.35041 7.44546 4.37104 7.93515L6.1599 11.5129ZM7.50547 11.276C8.42277 11.276 8.78262 11.5245 8.95496 11.7256L11.992 9.12242C10.8203 7.75548 9.16417 7.276 7.50547 7.276V11.276ZM8.97865 11.7527C9.24742 12.0551 9.50947 12.6025 9.50947 13.588H13.5095C13.5095 11.8855 13.0435 10.3049 11.9683 9.09527L8.97865 11.7527ZM9.50947 13.588C9.50947 14.3187 9.28254 14.7486 8.94457 15.0624L11.6664 17.9936C12.8964 16.8514 13.5095 15.3213 13.5095 13.588H9.50947ZM8.97038 15.0389C8.55997 15.4068 8.04137 15.62 7.30947 15.62V19.62C8.92957 19.62 10.427 19.1052 11.6406 18.0171L8.97038 15.0389ZM7.30947 15.62C6.50621 15.62 6.08958 15.4333 5.90981 15.3025L3.55713 18.5375C4.60936 19.3027 5.92873 19.62 7.30947 19.62V15.62ZM5.9135 15.3052C5.73806 15.177 5.51873 14.9277 5.42923 14.2297L1.46171 14.7383C1.65221 16.2243 2.27288 17.599 3.55344 18.5348L5.9135 15.3052ZM3.44547 12.484H0.225469V16.484H3.44547V12.484ZM-1.76882 14.6351C-1.58745 17.0291 -0.534407 19.0531 1.40547 20.508L3.80547 17.308C2.83335 16.5789 2.31839 15.6349 2.21975 14.3329L-1.76882 14.6351ZM1.39443 20.4997C3.06764 21.7728 5.07296 22.392 7.28147 22.392V18.392C5.84998 18.392 4.7193 18.0032 3.81651 17.3163L1.39443 20.4997ZM7.28147 22.392C9.69985 22.392 11.8579 21.6638 13.6901 20.1839L11.1768 17.0721C10.097 17.9442 8.83909 18.392 7.28147 18.392V22.392ZM13.7192 20.1599C15.7428 18.4616 16.7855 16.2194 16.7855 13.56H12.7855C12.7855 15.0445 12.2602 16.1624 11.1477 17.0961L13.7192 20.1599ZM16.7855 13.56C16.7855 11.0132 16.0483 8.76776 14.4402 7.08305L11.5468 9.84495C12.2906 10.6242 12.7855 11.7948 12.7855 13.56H16.7855ZM14.4402 7.08305C12.8434 5.41023 10.7578 4.616 8.40147 4.616V8.616C9.7971 8.616 10.7915 9.05377 11.5468 9.84495L14.4402 7.08305ZM8.40147 4.616C7.29606 4.616 6.23603 4.78911 5.24751 5.16931L6.68343 8.90269C7.15091 8.72289 7.71488 8.616 8.40147 8.616V4.616ZM5.31349 5.14525C4.19903 5.52955 3.24197 6.14707 2.42326 6.96579L5.25168 9.79421C5.66497 9.38093 6.10791 9.10245 6.61745 8.92674L5.31349 5.14525ZM3.83747 6.38H3.75347V10.38H3.83747V6.38ZM5.74314 8.58303L6.30314 3.09503L2.3238 2.68897L1.7638 8.17697L5.74314 8.58303ZM4.31347 4.892H13.8615V0.892H4.31347V4.892ZM15.8615 2.892V0.00799847H11.8615V2.892H15.8615ZM13.8615 -1.992H1.68147V2.008H13.8615V-1.992Z" fill="#353D49" fill-opacity="0.5" mask="url(#path-1-outside-1_128_1890)"/>
</svg>
