<svg width="17" height="20" viewBox="0 0 17 20" fill="none" xmlns="http://www.w3.org/2000/svg">
<mask id="path-1-outside-1_128_1889" maskUnits="userSpaceOnUse" x="-2" y="-2" width="21" height="24" fill="black">
<rect fill="white" x="-2" y="-2" width="21" height="24"/>
<path d="M10.4095 0.0079987L0.637469 12.608V15.716H10.2975V20H13.4055V15.716H16.3735V13.112H13.4055V0.0079987H10.4095ZM10.2135 4.152H10.2975V13.112H3.29747L10.2135 4.152Z"/>
</mask>
<path d="M10.4095 0.0079987L0.637469 12.608V15.716H10.2975V20H13.4055V15.716H16.3735V13.112H13.4055V0.0079987H10.4095ZM10.2135 4.152H10.2975V13.112H3.29747L10.2135 4.152Z" fill="white"/>
<path d="M10.4095 0.00799847V-1.992H9.42958L8.82906 -1.21769L10.4095 0.00799847ZM0.637469 12.608L-0.942936 11.3823L-1.36253 11.9233V12.608H0.637469ZM0.637469 15.716H-1.36253V17.716H0.637469V15.716ZM10.2975 15.716H12.2975V13.716H10.2975V15.716ZM10.2975 20H8.29747V22H10.2975V20ZM13.4055 20V22H15.4055V20H13.4055ZM13.4055 15.716V13.716H11.4055V15.716H13.4055ZM16.3735 15.716V17.716H18.3735V15.716H16.3735ZM16.3735 13.112H18.3735V11.112H16.3735V13.112ZM13.4055 13.112H11.4055V15.112H13.4055V13.112ZM13.4055 0.00799847H15.4055V-1.992H13.4055V0.00799847ZM10.2135 4.152V2.152H9.23073L8.63025 2.92995L10.2135 4.152ZM10.2975 4.152H12.2975V2.152H10.2975V4.152ZM10.2975 13.112V15.112H12.2975V13.112H10.2975ZM3.29747 13.112L1.71425 11.8899L-0.772773 15.112H3.29747V13.112ZM8.82906 -1.21769L-0.942936 11.3823L2.21787 13.8337L11.9899 1.23369L8.82906 -1.21769ZM-1.36253 12.608V15.716H2.63747V12.608H-1.36253ZM0.637469 17.716H10.2975V13.716H0.637469V17.716ZM8.29747 15.716V20H12.2975V15.716H8.29747ZM10.2975 22H13.4055V18H10.2975V22ZM15.4055 20V15.716H11.4055V20H15.4055ZM13.4055 17.716H16.3735V13.716H13.4055V17.716ZM18.3735 15.716V13.112H14.3735V15.716H18.3735ZM16.3735 11.112H13.4055V15.112H16.3735V11.112ZM15.4055 13.112V0.00799847H11.4055V13.112H15.4055ZM13.4055 -1.992H10.4095V2.008H13.4055V-1.992ZM10.2135 6.152H10.2975V2.152H10.2135V6.152ZM8.29747 4.152V13.112H12.2975V4.152H8.29747ZM10.2975 11.112H3.29747V15.112H10.2975V11.112ZM4.88069 14.334L11.7967 5.37405L8.63025 2.92995L1.71425 11.8899L4.88069 14.334Z" fill="#353D49" fill-opacity="0.5" mask="url(#path-1-outside-1_128_1889)"/>
</svg>
