<svg width="15" height="22" viewBox="0 0 15 22" fill="none" xmlns="http://www.w3.org/2000/svg">
<mask id="path-1-outside-1_128_1894" maskUnits="userSpaceOnUse" x="-2" y="-2" width="19" height="26" fill="black">
<rect fill="white" x="-2" y="-2" width="19" height="26"/>
<path d="M7.28147 0.615999C5.26547 0.615999 3.58547 1.26 2.24147 2.576C0.897469 3.864 0.225469 5.516 0.225469 7.532C0.225469 9.492 0.785469 11.088 1.96147 12.32C3.13747 13.608 4.73347 14.252 6.69347 14.252C7.70147 14.252 8.59747 14.056 9.38147 13.692C10.1935 13.3 10.8935 12.684 11.4815 11.872H11.6215V12.124C11.6215 13.972 11.2295 15.512 10.4735 16.744C9.66147 18.032 8.59747 18.704 7.28147 18.704C5.34947 18.704 4.20147 17.78 3.80947 15.932H0.617469C1.09347 19.572 3.30547 21.392 7.25347 21.392C9.54947 21.392 11.3975 20.384 12.7695 18.368C14.1135 16.352 14.8135 13.692 14.8135 10.444C14.8135 7.364 14.1695 4.984 12.8815 3.248C11.5935 1.484 9.71747 0.615999 7.28147 0.615999ZM7.39347 3.332C8.51347 3.332 9.46547 3.696 10.1935 4.424C10.9215 5.152 11.2855 6.132 11.2855 7.42C11.2855 8.708 10.9215 9.716 10.2495 10.472C9.54947 11.2 8.59747 11.592 7.39347 11.592C6.16147 11.592 5.20947 11.2 4.53747 10.472C3.80947 9.744 3.47347 8.764 3.47347 7.532C3.47347 6.3 3.80947 5.292 4.53747 4.508C5.26547 3.724 6.21747 3.332 7.39347 3.332Z"/>
</mask>
<path d="M7.28147 0.615999C5.26547 0.615999 3.58547 1.26 2.24147 2.576C0.897469 3.864 0.225469 5.516 0.225469 7.532C0.225469 9.492 0.785469 11.088 1.96147 12.32C3.13747 13.608 4.73347 14.252 6.69347 14.252C7.70147 14.252 8.59747 14.056 9.38147 13.692C10.1935 13.3 10.8935 12.684 11.4815 11.872H11.6215V12.124C11.6215 13.972 11.2295 15.512 10.4735 16.744C9.66147 18.032 8.59747 18.704 7.28147 18.704C5.34947 18.704 4.20147 17.78 3.80947 15.932H0.617469C1.09347 19.572 3.30547 21.392 7.25347 21.392C9.54947 21.392 11.3975 20.384 12.7695 18.368C14.1135 16.352 14.8135 13.692 14.8135 10.444C14.8135 7.364 14.1695 4.984 12.8815 3.248C11.5935 1.484 9.71747 0.615999 7.28147 0.615999ZM7.39347 3.332C8.51347 3.332 9.46547 3.696 10.1935 4.424C10.9215 5.152 11.2855 6.132 11.2855 7.42C11.2855 8.708 10.9215 9.716 10.2495 10.472C9.54947 11.2 8.59747 11.592 7.39347 11.592C6.16147 11.592 5.20947 11.2 4.53747 10.472C3.80947 9.744 3.47347 8.764 3.47347 7.532C3.47347 6.3 3.80947 5.292 4.53747 4.508C5.26547 3.724 6.21747 3.332 7.39347 3.332Z" fill="white"/>
<path d="M2.24147 2.576L3.62528 4.01997L3.63304 4.01254L3.64072 4.00502L2.24147 2.576ZM1.96147 12.32L3.43844 10.9715L3.42349 10.9551L3.40818 10.939L1.96147 12.32ZM9.38147 13.692L10.2237 15.506L10.2374 15.4997L10.251 15.4931L9.38147 13.692ZM11.4815 11.872V9.872H10.4604L9.86159 10.699L11.4815 11.872ZM11.6215 11.872H13.6215V9.872H11.6215V11.872ZM10.4735 16.744L12.1653 17.8106L12.1718 17.8004L12.1781 17.79L10.4735 16.744ZM3.80947 15.932L5.76594 15.517L5.42973 13.932H3.80947V15.932ZM0.617469 15.932V13.932H-1.6611L-1.36565 16.1913L0.617469 15.932ZM12.7695 18.368L14.4229 19.4932L14.4283 19.4853L14.4336 19.4774L12.7695 18.368ZM12.8815 3.248L11.2662 4.42739L11.2707 4.43356L11.2753 4.43969L12.8815 3.248ZM10.1935 4.424L8.77926 5.83821L8.77926 5.83821L10.1935 4.424ZM10.2495 10.472L11.6911 11.8582L11.7183 11.83L11.7443 11.8007L10.2495 10.472ZM4.53747 10.472L6.00708 9.11544L5.97996 9.08606L5.95168 9.05779L4.53747 10.472ZM4.53747 4.508L3.07188 3.1471H3.07188L4.53747 4.508ZM7.28147 -1.384C4.79456 -1.384 2.59574 -0.570015 0.842219 1.14698L3.64072 4.00502C4.57519 3.09001 5.73637 2.616 7.28147 2.616V-1.384ZM0.857658 1.13202C-0.914836 2.83066 -1.77453 5.02107 -1.77453 7.532H2.22547C2.22547 6.01093 2.70977 4.89733 3.62528 4.01997L0.857658 1.13202ZM-1.77453 7.532C-1.77453 9.89883 -1.08425 12.0258 0.514758 13.701L3.40818 10.939C2.65519 10.1502 2.22547 9.08517 2.22547 7.532H-1.77453ZM0.484498 13.6685C2.0942 15.4315 4.2582 16.252 6.69347 16.252V12.252C5.20874 12.252 4.18074 11.7845 3.43844 10.9715L0.484498 13.6685ZM6.69347 16.252C7.96605 16.252 9.15292 16.0032 10.2237 15.506L8.53925 11.878C8.04201 12.1088 7.43689 12.252 6.69347 12.252V16.252ZM10.251 15.4931C11.4067 14.9352 12.351 14.0812 13.1014 13.045L9.86159 10.699C9.4359 11.2868 8.98022 11.6648 8.51197 11.8909L10.251 15.4931ZM11.4815 13.872H11.6215V9.872H11.4815V13.872ZM9.62147 11.872V12.124H13.6215V11.872H9.62147ZM9.62147 12.124C9.62147 13.6909 9.29026 14.8482 8.76882 15.698L12.1781 17.79C13.1687 16.1758 13.6215 14.2531 13.6215 12.124H9.62147ZM8.78162 15.6774C8.25156 16.5182 7.76616 16.704 7.28147 16.704V20.704C9.42878 20.704 11.0714 19.5458 12.1653 17.8106L8.78162 15.6774ZM7.28147 16.704C6.63042 16.704 6.34498 16.5514 6.21736 16.4493C6.09329 16.35 5.8937 16.1193 5.76594 15.517L1.853 16.347C2.11723 17.5927 2.68765 18.748 3.71858 19.5727C4.74596 20.3946 6.00052 20.704 7.28147 20.704V16.704ZM3.80947 13.932H0.617469V17.932H3.80947V13.932ZM-1.36565 16.1913C-1.08105 18.3676 -0.236305 20.2558 1.36274 21.5714C2.94136 22.8703 4.98998 23.392 7.25347 23.392V19.392C5.56896 19.392 4.53758 19.0037 3.9042 18.4826C3.29124 17.9782 2.79199 17.1364 2.60058 15.6727L-1.36565 16.1913ZM7.25347 23.392C10.254 23.392 12.7031 22.0203 14.4229 19.4932L11.116 17.2428C10.0918 18.7477 8.8449 19.392 7.25347 19.392V23.392ZM14.4336 19.4774C16.0548 17.0456 16.8135 13.967 16.8135 10.444H12.8135C12.8135 13.417 12.1722 15.6584 11.1054 17.2586L14.4336 19.4774ZM16.8135 10.444C16.8135 7.10655 16.1176 4.25323 14.4877 2.0563L11.2753 4.43969C12.2213 5.71476 12.8135 7.62145 12.8135 10.444H16.8135ZM14.4967 2.06861C12.7772 -0.286404 10.2567 -1.384 7.28147 -1.384V2.616C9.17828 2.616 10.4097 3.2544 11.2662 4.42739L14.4967 2.06861ZM7.39347 5.332C8.04982 5.332 8.47105 5.53001 8.77926 5.83821L11.6077 3.00979C10.4599 1.86199 8.97712 1.332 7.39347 1.332V5.332ZM8.77926 5.83821C9.05144 6.1104 9.28547 6.53615 9.28547 7.42H13.2855C13.2855 5.72785 12.7915 4.1936 11.6077 3.00979L8.77926 5.83821ZM9.28547 7.42C9.28547 8.31101 9.04442 8.81728 8.75465 9.14327L11.7443 11.8007C12.7985 10.6147 13.2855 9.10499 13.2855 7.42H9.28547ZM8.8078 9.08578C8.53274 9.37185 8.12658 9.592 7.39347 9.592V13.592C9.06836 13.592 10.5662 13.0281 11.6911 11.8582L8.8078 9.08578ZM7.39347 9.592C6.61461 9.592 6.23464 9.36197 6.00708 9.11544L3.06786 11.8286C4.1843 13.038 5.70833 13.592 7.39347 13.592V9.592ZM5.95168 9.05779C5.69402 8.80013 5.47347 8.38548 5.47347 7.532H1.47347C1.47347 9.14252 1.92492 10.6879 3.12326 11.8862L5.95168 9.05779ZM5.47347 7.532C5.47347 6.68445 5.69253 6.20331 6.00306 5.8689L3.07188 3.1471C1.92641 4.38069 1.47347 5.91555 1.47347 7.532H5.47347ZM6.00306 5.8689C6.31281 5.53531 6.71226 5.332 7.39347 5.332V1.332C5.72268 1.332 4.21812 1.91268 3.07188 3.1471L6.00306 5.8689Z" fill="#353D49" fill-opacity="0.5" mask="url(#path-1-outside-1_128_1894)"/>
</svg>
