<svg width="9" height="20" viewBox="0 0 9 20" fill="none" xmlns="http://www.w3.org/2000/svg">
<mask id="path-1-outside-1_128_1886" maskUnits="userSpaceOnUse" x="-2" y="-2" width="13" height="24" fill="black">
<rect fill="white" x="-2" y="-2" width="13" height="24"/>
<path d="M5.75381 0.0079987C5.08181 0.708 4.24181 1.352 3.23381 1.968C2.22581 2.528 1.27381 2.92 0.377813 3.144V6.392C2.22581 5.86 3.73781 5.048 4.94181 3.956V20H8.21781V0.0079987H5.75381Z"/>
</mask>
<path d="M5.75381 0.0079987C5.08181 0.708 4.24181 1.352 3.23381 1.968C2.22581 2.528 1.27381 2.92 0.377813 3.144V6.392C2.22581 5.86 3.73781 5.048 4.94181 3.956V20H8.21781V0.0079987H5.75381Z" fill="white"/>
<path d="M5.75381 0.00799847V-1.992H4.90138L4.31104 -1.37706L5.75381 0.00799847ZM3.23381 1.968L4.2051 3.71631L4.24134 3.69618L4.27671 3.67456L3.23381 1.968ZM0.377813 3.144L-0.107256 1.20371L-1.62219 1.58244V3.144H0.377813ZM0.377813 6.392H-1.62219V9.04898L0.931099 8.31394L0.377813 6.392ZM4.94181 3.956H6.94181V-0.558031L3.59818 2.47456L4.94181 3.956ZM4.94181 20H2.94181V22H4.94181V20ZM8.21781 20V22H10.2178V20H8.21781ZM8.21781 0.00799847H10.2178V-1.992H8.21781V0.00799847ZM4.31104 -1.37706C3.78894 -0.833215 3.09619 -0.29179 2.19091 0.261434L4.27671 3.67456C5.38743 2.99579 6.37468 2.24921 7.19659 1.39306L4.31104 -1.37706ZM2.26253 0.219685C1.37136 0.71478 0.583057 1.03114 -0.107256 1.20371L0.862881 5.08428C1.96457 4.80886 3.08027 4.34122 4.2051 3.71631L2.26253 0.219685ZM-1.62219 3.144V6.392H2.37781V3.144H-1.62219ZM0.931099 8.31394C3.02479 7.71122 4.82084 6.7658 6.28544 5.43744L3.59818 2.47456C2.65479 3.3302 1.42684 4.00878 -0.175474 4.47005L0.931099 8.31394ZM2.94181 3.956V20H6.94181V3.956H2.94181ZM4.94181 22H8.21781V18H4.94181V22ZM10.2178 20V0.00799847H6.21781V20H10.2178ZM8.21781 -1.992H5.75381V2.008H8.21781V-1.992Z" fill="#353D49" fill-opacity="0.5" mask="url(#path-1-outside-1_128_1886)"/>
</svg>
