<svg width="14" height="20" viewBox="0 0 14 20" fill="none" xmlns="http://www.w3.org/2000/svg">
<mask id="path-1-outside-1_128_1892" maskUnits="userSpaceOnUse" x="-2" y="-2" width="18" height="24" fill="black">
<rect fill="white" x="-2" y="-2" width="18" height="24"/>
<path d="M0.101719 0.0079987V2.976H10.3217L3.15372 20H6.62572L13.6257 2.64V0.0079987H0.101719Z"/>
</mask>
<path d="M0.101719 0.0079987V2.976H10.3217L3.15372 20H6.62572L13.6257 2.64V0.0079987H0.101719Z" fill="white"/>
<path d="M0.101719 0.00799847V-1.992H-1.89828V0.00799847H0.101719ZM0.101719 2.976H-1.89828V4.976H0.101719V2.976ZM10.3217 2.976L12.165 3.75211L13.3339 0.975999H10.3217V2.976ZM3.15372 20L1.31045 19.2239L0.141558 22H3.15372V20ZM6.62572 20V22H7.97574L8.4806 20.7479L6.62572 20ZM13.6257 2.64L15.4806 3.38794L15.6257 3.02805V2.64H13.6257ZM13.6257 0.00799847H15.6257V-1.992H13.6257V0.00799847ZM-1.89828 0.00799847V2.976H2.10172V0.00799847H-1.89828ZM0.101719 4.976H10.3217V0.975999H0.101719V4.976ZM8.47845 2.19989L1.31045 19.2239L4.99699 20.7761L12.165 3.75211L8.47845 2.19989ZM3.15372 22H6.62572V18H3.15372V22ZM8.4806 20.7479L15.4806 3.38794L11.7708 1.89206L4.77084 19.2521L8.4806 20.7479ZM15.6257 2.64V0.00799847H11.6257V2.64H15.6257ZM13.6257 -1.992H0.101719V2.008H13.6257V-1.992Z" fill="#353D49" fill-opacity="0.5" mask="url(#path-1-outside-1_128_1892)"/>
</svg>
