<svg width="15" height="22" viewBox="0 0 15 22" fill="none" xmlns="http://www.w3.org/2000/svg">
<mask id="path-1-outside-1_128_1891" maskUnits="userSpaceOnUse" x="-2" y="-2" width="19" height="26" fill="black">
<rect fill="white" x="-2" y="-2" width="19" height="26"/>
<path d="M7.78547 0.615999C5.46147 0.615999 3.61347 1.624 2.26947 3.64C0.897469 5.656 0.225469 8.288 0.225469 11.564C0.225469 14.616 0.841469 16.996 2.12947 18.732C3.41747 20.496 5.29347 21.392 7.75747 21.392C9.74547 21.392 11.4255 20.72 12.7695 19.432C14.1135 18.144 14.8135 16.492 14.8135 14.476C14.8135 12.516 14.2255 10.892 13.0495 9.632C11.8735 8.372 10.3055 7.756 8.34547 7.756C7.33747 7.756 6.44147 7.924 5.65747 8.316C4.81747 8.708 4.11747 9.296 3.55747 10.136H3.41747V9.884C3.41747 8.036 3.78147 6.496 4.56547 5.264C5.34947 3.948 6.41347 3.304 7.75747 3.304C9.66147 3.304 10.8375 4.228 11.2295 6.076H14.4215C13.9175 2.436 11.7055 0.615999 7.78547 0.615999ZM7.64547 10.416C8.84947 10.416 9.80147 10.78 10.5295 11.536C11.2015 12.264 11.5655 13.244 11.5655 14.476C11.5655 15.708 11.2015 16.716 10.4735 17.5C9.74547 18.284 8.82147 18.676 7.64547 18.676C6.49747 18.676 5.57347 18.312 4.84547 17.584C4.11747 16.856 3.75347 15.848 3.75347 14.588C3.75347 13.3 4.08947 12.264 4.78947 11.536C5.46147 10.78 6.41347 10.416 7.64547 10.416Z"/>
</mask>
<path d="M7.78547 0.615999C5.46147 0.615999 3.61347 1.624 2.26947 3.64C0.897469 5.656 0.225469 8.288 0.225469 11.564C0.225469 14.616 0.841469 16.996 2.12947 18.732C3.41747 20.496 5.29347 21.392 7.75747 21.392C9.74547 21.392 11.4255 20.72 12.7695 19.432C14.1135 18.144 14.8135 16.492 14.8135 14.476C14.8135 12.516 14.2255 10.892 13.0495 9.632C11.8735 8.372 10.3055 7.756 8.34547 7.756C7.33747 7.756 6.44147 7.924 5.65747 8.316C4.81747 8.708 4.11747 9.296 3.55747 10.136H3.41747V9.884C3.41747 8.036 3.78147 6.496 4.56547 5.264C5.34947 3.948 6.41347 3.304 7.75747 3.304C9.66147 3.304 10.8375 4.228 11.2295 6.076H14.4215C13.9175 2.436 11.7055 0.615999 7.78547 0.615999ZM7.64547 10.416C8.84947 10.416 9.80147 10.78 10.5295 11.536C11.2015 12.264 11.5655 13.244 11.5655 14.476C11.5655 15.708 11.2015 16.716 10.4735 17.5C9.74547 18.284 8.82147 18.676 7.64547 18.676C6.49747 18.676 5.57347 18.312 4.84547 17.584C4.11747 16.856 3.75347 15.848 3.75347 14.588C3.75347 13.3 4.08947 12.264 4.78947 11.536C5.46147 10.78 6.41347 10.416 7.64547 10.416Z" fill="white"/>
<path d="M2.26947 3.64L3.92289 4.76525L3.92827 4.75735L3.93357 4.7494L2.26947 3.64ZM2.12947 18.732L3.74472 17.5526L3.74022 17.5464L3.73566 17.5403L2.12947 18.732ZM12.7695 19.432L14.1533 20.876H14.1533L12.7695 19.432ZM13.0495 9.632L11.5874 10.9966H11.5874L13.0495 9.632ZM5.65747 8.316L6.50324 10.1284L6.52773 10.1169L6.5519 10.1049L5.65747 8.316ZM3.55747 10.136V12.136H4.62784L5.22157 11.2454L3.55747 10.136ZM3.41747 10.136H1.41747V12.136H3.41747V10.136ZM4.56547 5.264L6.25279 6.33775L6.2686 6.31291L6.28367 6.28761L4.56547 5.264ZM11.2295 6.076L9.273 6.49101L9.60921 8.076H11.2295V6.076ZM14.4215 6.076V8.076H16.7175L16.4026 5.80169L14.4215 6.076ZM10.5295 11.536L11.9991 10.1794L11.9848 10.1639L11.9701 10.1487L10.5295 11.536ZM10.4735 17.5L11.9391 18.8609V18.8609L10.4735 17.5ZM4.84547 17.584L6.25968 16.1698H6.25968L4.84547 17.584ZM4.78947 11.536L6.23114 12.9222L6.25827 12.894L6.28429 12.8647L4.78947 11.536ZM7.78547 -1.384C4.76415 -1.384 2.30414 -0.0175591 0.605368 2.5306L3.93357 4.7494C4.9228 3.26556 6.15879 2.616 7.78547 2.616V-1.384ZM0.616043 2.51475C-1.04983 4.96256 -1.77453 8.02757 -1.77453 11.564H2.22547C2.22547 8.54843 2.84477 6.34943 3.92289 4.76525L0.616043 2.51475ZM-1.77453 11.564C-1.77453 14.8578 -1.11322 17.718 0.523273 19.9237L3.73566 17.5403C2.79615 16.274 2.22547 14.3742 2.22547 11.564H-1.77453ZM0.514217 19.9114C2.22599 22.2558 4.73947 23.392 7.75747 23.392V19.392C5.84747 19.392 4.60895 18.7362 3.74472 17.5526L0.514217 19.9114ZM7.75747 23.392C10.2399 23.392 12.4219 22.5353 14.1533 20.876L11.3857 17.988C10.4291 18.9047 9.25105 19.392 7.75747 19.392V23.392ZM14.1533 20.876C15.9111 19.1914 16.8135 17.0086 16.8135 14.476H12.8135C12.8135 15.9754 12.3159 17.0966 11.3857 17.988L14.1533 20.876ZM16.8135 14.476C16.8135 12.0885 16.0837 9.95174 14.5116 8.26736L11.5874 10.9966C12.3673 11.8323 12.8135 12.9435 12.8135 14.476H16.8135ZM14.5116 8.26736C12.8967 6.5371 10.7642 5.756 8.34547 5.756V9.756C9.84674 9.756 10.8503 10.2069 11.5874 10.9966L14.5116 8.26736ZM8.34547 5.756C7.1188 5.756 5.89663 5.96035 4.76304 6.52715L6.5519 10.1049C6.98631 9.88765 7.55614 9.756 8.34547 9.756V5.756ZM4.8117 6.50363C3.63828 7.05123 2.65574 7.88304 1.89337 9.0266L5.22157 11.2454C5.57919 10.709 5.99666 10.3648 6.50324 10.1284L4.8117 6.50363ZM3.55747 8.136H3.41747V12.136H3.55747V8.136ZM5.41747 10.136V9.884H1.41747V10.136H5.41747ZM5.41747 9.884C5.41747 8.28921 5.73195 7.15622 6.25279 6.33775L2.87815 4.19025C1.83099 5.83578 1.41747 7.78279 1.41747 9.884H5.41747ZM6.28367 6.28761C6.75915 5.48949 7.21454 5.304 7.75747 5.304V1.304C5.6124 1.304 3.93979 2.40651 2.84727 4.24039L6.28367 6.28761ZM7.75747 5.304C8.38882 5.304 8.67932 5.45397 8.81569 5.56241C8.94704 5.66686 9.14784 5.90096 9.273 6.49101L13.1859 5.66099C12.9191 4.40304 12.3359 3.25114 11.3053 2.43159C10.2796 1.61602 9.03011 1.304 7.75747 1.304V5.304ZM11.2295 8.076H14.4215V4.076H11.2295V8.076ZM16.4026 5.80169C16.1018 3.6297 15.2493 1.7482 13.6552 0.436574C12.0789 -0.860409 10.039 -1.384 7.78547 -1.384V2.616C9.45192 2.616 10.4781 3.00241 11.1137 3.52542C11.7316 4.0338 12.2371 4.8823 12.4404 6.3503L16.4026 5.80169ZM7.64547 12.416C8.40528 12.416 8.80159 12.625 9.08883 12.9233L11.9701 10.1487C10.8013 8.935 9.29366 8.416 7.64547 8.416V12.416ZM9.05986 12.8926C9.33538 13.191 9.56547 13.6586 9.56547 14.476H13.5655C13.5655 12.8294 13.0676 11.337 11.9991 10.1794L9.05986 12.8926ZM9.56547 14.476C9.56547 15.2852 9.34038 15.781 9.00788 16.1391L11.9391 18.8609C13.0626 17.651 13.5655 16.1308 13.5655 14.476H9.56547ZM9.00788 16.1391C8.68817 16.4834 8.3108 16.676 7.64547 16.676V20.676C9.33214 20.676 10.8028 20.0846 11.9391 18.8609L9.00788 16.1391ZM7.64547 16.676C6.9688 16.676 6.57279 16.4829 6.25968 16.1698L3.43126 18.9982C4.57415 20.1411 6.02614 20.676 7.64547 20.676V16.676ZM6.25968 16.1698C5.99163 15.9017 5.75347 15.451 5.75347 14.588H1.75347C1.75347 16.245 2.24331 17.8103 3.43126 18.9982L6.25968 16.1698ZM5.75347 14.588C5.75347 13.6346 5.99842 13.1642 6.23114 12.9222L3.3478 10.1498C2.18052 11.3638 1.75347 12.9654 1.75347 14.588H5.75347ZM6.28429 12.8647C6.48427 12.6397 6.82896 12.416 7.64547 12.416V8.416C5.99797 8.416 4.43866 8.92026 3.29465 10.2073L6.28429 12.8647Z" fill="#353D49" fill-opacity="0.5" mask="url(#path-1-outside-1_128_1891)"/>
</svg>
