<svg width="27" height="22" viewBox="0 0 27 22" fill="none" xmlns="http://www.w3.org/2000/svg">
<mask id="path-1-outside-1_128_1895" maskUnits="userSpaceOnUse" x="-2" y="-2" width="31" height="26" fill="black">
<rect fill="white" x="-2" y="-2" width="31" height="26"/>
<path d="M5.85928 1.008C5.18728 1.708 4.34728 2.352 3.33928 2.968C2.33128 3.528 1.37928 3.92 0.483281 4.144V7.392C2.33128 6.86 3.84328 6.048 5.04728 4.956V21H8.32328V1.008H5.85928ZM19.2477 0.615999C16.8957 0.615999 15.0757 1.568 13.7877 3.528C12.5557 5.376 11.9397 7.868 11.9397 11.004C11.9397 14.14 12.5557 16.632 13.7877 18.48C15.0757 20.412 16.8957 21.392 19.2477 21.392C21.5717 21.392 23.3917 20.412 24.7077 18.48C25.9397 16.632 26.5557 14.14 26.5557 11.004C26.5557 7.868 25.9397 5.376 24.7077 3.528C23.3917 1.568 21.5717 0.615999 19.2477 0.615999ZM19.2477 3.388C20.8157 3.388 21.9357 4.256 22.6077 6.048C23.0557 7.252 23.2797 8.904 23.2797 11.004C23.2797 13.076 23.0557 14.728 22.6077 15.96C21.9357 17.724 20.8157 18.62 19.2477 18.62C17.6517 18.62 16.5317 17.724 15.8877 15.96C15.4397 14.728 15.2157 13.076 15.2157 11.004C15.2157 8.904 15.4397 7.252 15.8877 6.048C16.5317 4.256 17.6517 3.388 19.2477 3.388Z"/>
</mask>
<path d="M5.85928 1.008C5.18728 1.708 4.34728 2.352 3.33928 2.968C2.33128 3.528 1.37928 3.92 0.483281 4.144V7.392C2.33128 6.86 3.84328 6.048 5.04728 4.956V21H8.32328V1.008H5.85928ZM19.2477 0.615999C16.8957 0.615999 15.0757 1.568 13.7877 3.528C12.5557 5.376 11.9397 7.868 11.9397 11.004C11.9397 14.14 12.5557 16.632 13.7877 18.48C15.0757 20.412 16.8957 21.392 19.2477 21.392C21.5717 21.392 23.3917 20.412 24.7077 18.48C25.9397 16.632 26.5557 14.14 26.5557 11.004C26.5557 7.868 25.9397 5.376 24.7077 3.528C23.3917 1.568 21.5717 0.615999 19.2477 0.615999ZM19.2477 3.388C20.8157 3.388 21.9357 4.256 22.6077 6.048C23.0557 7.252 23.2797 8.904 23.2797 11.004C23.2797 13.076 23.0557 14.728 22.6077 15.96C21.9357 17.724 20.8157 18.62 19.2477 18.62C17.6517 18.62 16.5317 17.724 15.8877 15.96C15.4397 14.728 15.2157 13.076 15.2157 11.004C15.2157 8.904 15.4397 7.252 15.8877 6.048C16.5317 4.256 17.6517 3.388 19.2477 3.388Z" fill="white"/>
<path d="M5.85928 1.008V-0.992002H5.00684L4.41651 -0.377064L5.85928 1.008ZM3.33928 2.968L4.31057 4.71631L4.34681 4.69618L4.38218 4.67456L3.33928 2.968ZM0.483281 4.144L-0.00178742 2.20371L-1.51672 2.58244V4.144H0.483281ZM0.483281 7.392H-1.51672V10.049L1.03657 9.31394L0.483281 7.392ZM5.04728 4.956H7.04728V0.441969L3.70365 3.47456L5.04728 4.956ZM5.04728 21H3.04728V23H5.04728V21ZM8.32328 21V23H10.3233V21H8.32328ZM8.32328 1.008H10.3233V-0.992002H8.32328V1.008ZM4.41651 -0.377064C3.89441 0.166785 3.20166 0.70821 2.29638 1.26143L4.38218 4.67456C5.4929 3.99579 6.48015 3.24921 7.30206 2.39306L4.41651 -0.377064ZM2.36799 1.21968C1.47682 1.71478 0.688525 2.03114 -0.00178742 2.20371L0.96835 6.08428C2.07004 5.80886 3.18574 5.34122 4.31057 4.71631L2.36799 1.21968ZM-1.51672 4.144V7.392H2.48328V4.144H-1.51672ZM1.03657 9.31394C3.13026 8.71122 4.92631 7.7658 6.39091 6.43744L3.70365 3.47456C2.76026 4.3302 1.53231 5.00878 -0.0700049 5.47005L1.03657 9.31394ZM3.04728 4.956V21H7.04728V4.956H3.04728ZM5.04728 23H8.32328V19H5.04728V23ZM10.3233 21V1.008H6.32328V21H10.3233ZM8.32328 -0.992002H5.85928V3.008H8.32328V-0.992002ZM13.7877 3.528L15.4518 4.63742L15.4591 4.62636L13.7877 3.528ZM13.7877 18.48L12.1236 19.5894L13.7877 18.48ZM24.7077 18.48L26.3606 19.6059L26.3662 19.5977L26.3718 19.5894L24.7077 18.48ZM24.7077 3.528L26.3718 2.41859L26.3681 2.41313L24.7077 3.528ZM22.6077 6.048L24.4821 5.35053L24.4803 5.34575L22.6077 6.048ZM22.6077 15.96L24.4766 16.672L24.482 16.6578L24.4872 16.6435L22.6077 15.96ZM15.8877 15.96L14.0081 16.6435L14.0089 16.6459L15.8877 15.96ZM15.8877 6.048L17.7621 6.74547L17.766 6.73495L17.7698 6.7244L15.8877 6.048ZM19.2477 -1.384C16.2428 -1.384 13.7852 -0.110103 12.1162 2.42964L15.4591 4.62636C16.3661 3.2461 17.5485 2.616 19.2477 2.616V-1.384ZM12.1236 2.4186C10.5995 4.70464 9.93966 7.62932 9.93966 11.004H13.9397C13.9397 8.10667 14.5118 6.04735 15.4518 4.6374L12.1236 2.4186ZM9.93966 11.004C9.93966 14.3787 10.5995 17.3034 12.1236 19.5894L15.4518 17.3706C14.5118 15.9606 13.9397 13.9013 13.9397 11.004H9.93966ZM12.1236 19.5894C13.7832 22.0789 16.2283 23.392 19.2477 23.392V19.392C17.563 19.392 16.3681 18.7451 15.4518 17.3706L12.1236 19.5894ZM19.2477 23.392C22.2469 23.392 24.6799 22.0734 26.3606 19.6059L23.0547 17.3541C22.1034 18.7506 20.8964 19.392 19.2477 19.392V23.392ZM26.3718 19.5894C27.8958 17.3034 28.5557 14.3787 28.5557 11.004H24.5557C24.5557 13.9013 23.9835 15.9606 23.0436 17.3706L26.3718 19.5894ZM28.5557 11.004C28.5557 7.62932 27.8958 4.70464 26.3718 2.4186L23.0436 4.6374C23.9835 6.04735 24.5557 8.10667 24.5557 11.004H28.5557ZM26.3681 2.41313C24.6776 -0.104599 22.2326 -1.384 19.2477 -1.384V2.616C20.9107 2.616 22.1057 3.2406 23.0472 4.64287L26.3681 2.41313ZM19.2477 5.388C19.6374 5.388 19.8596 5.48598 20.0263 5.61727C20.219 5.76906 20.4861 6.08657 20.735 6.75025L24.4803 5.34575C24.0572 4.21743 23.4283 3.20494 22.501 2.47473C21.5478 1.72402 20.4259 1.388 19.2477 1.388V5.388ZM20.7332 6.74547C21.0622 7.62953 21.2797 9.01059 21.2797 11.004H25.2797C25.2797 8.79741 25.0491 6.87447 24.4821 5.35053L20.7332 6.74547ZM21.2797 11.004C21.2797 12.9622 21.0639 14.353 20.7281 15.2765L24.4872 16.6435C25.0474 15.103 25.2797 13.1898 25.2797 11.004H21.2797ZM20.7387 15.248C20.4901 15.9005 20.2213 16.2254 20.0202 16.385C19.8461 16.5232 19.6231 16.62 19.2477 16.62V20.62C20.4403 20.62 21.5612 20.2688 22.5071 19.518C23.4261 18.7886 24.0532 17.7835 24.4766 16.672L20.7387 15.248ZM19.2477 16.62C18.8491 16.62 18.6217 16.5181 18.4541 16.385C18.2614 16.232 18.0012 15.9175 17.7664 15.2741L14.0089 16.6459C14.4181 17.7665 15.04 18.782 15.9672 19.518C16.9196 20.2739 18.0502 20.62 19.2477 20.62V16.62ZM17.7672 15.2765C17.4314 14.353 17.2157 12.9622 17.2157 11.004H13.2157C13.2157 13.1898 13.4479 15.103 14.0081 16.6435L17.7672 15.2765ZM17.2157 11.004C17.2157 9.01059 17.4331 7.62953 17.7621 6.74547L14.0132 5.35053C13.4462 6.87447 13.2157 8.79741 13.2157 11.004H17.2157ZM17.7698 6.7244C18.0051 6.06953 18.2637 5.76246 18.448 5.61727C18.6084 5.49097 18.8349 5.388 19.2477 5.388V1.388C18.0644 1.388 16.9329 1.71903 15.9733 2.47473C15.0376 3.21154 14.4142 4.23446 14.0055 5.3716L17.7698 6.7244Z" fill="#353D49" fill-opacity="0.5" mask="url(#path-1-outside-1_128_1895)"/>
</svg>
