<svg width="15" height="22" viewBox="0 0 15 22" fill="none" xmlns="http://www.w3.org/2000/svg">
<mask id="path-1-outside-1_128_1888" maskUnits="userSpaceOnUse" x="-2" y="-2" width="19" height="26" fill="black">
<rect fill="white" x="-2" y="-2" width="19" height="26"/>
<path d="M7.70147 0.615999C5.74147 0.615999 4.11747 1.148 2.85747 2.268C1.51347 3.388 0.785469 4.956 0.617469 6.972H3.83747C3.94947 5.768 4.34147 4.872 5.01347 4.284C5.65747 3.696 6.55347 3.416 7.72947 3.416C8.87747 3.416 9.74547 3.668 10.3335 4.172C10.8655 4.676 11.1455 5.404 11.1455 6.384C11.1455 7.364 10.8375 8.12 10.2495 8.624C9.63347 9.128 8.73747 9.38 7.56147 9.38H6.16147V11.844H7.56147C8.84947 11.844 9.82947 12.096 10.5015 12.656C11.1735 13.188 11.5375 14.028 11.5375 15.176C11.5375 16.128 11.2015 16.912 10.5575 17.556C9.82947 18.256 8.82147 18.62 7.56147 18.62C6.41347 18.62 5.48947 18.284 4.78947 17.64C4.00547 16.94 3.61347 15.932 3.55747 14.644H0.225469C0.393469 16.884 1.17747 18.62 2.57747 19.796C3.83747 20.86 5.51747 21.392 7.58947 21.392C9.77347 21.392 11.5375 20.776 12.8815 19.572C14.1695 18.396 14.8135 16.884 14.8135 15.036C14.8135 13.86 14.4775 12.88 13.8055 12.124C13.1895 11.396 12.2655 10.864 11.0895 10.5C13.3015 9.772 14.4215 8.316 14.4215 6.132C14.4215 4.396 13.8055 3.052 12.6015 2.072C11.3695 1.092 9.71747 0.615999 7.70147 0.615999Z"/>
</mask>
<path d="M7.70147 0.615999C5.74147 0.615999 4.11747 1.148 2.85747 2.268C1.51347 3.388 0.785469 4.956 0.617469 6.972H3.83747C3.94947 5.768 4.34147 4.872 5.01347 4.284C5.65747 3.696 6.55347 3.416 7.72947 3.416C8.87747 3.416 9.74547 3.668 10.3335 4.172C10.8655 4.676 11.1455 5.404 11.1455 6.384C11.1455 7.364 10.8375 8.12 10.2495 8.624C9.63347 9.128 8.73747 9.38 7.56147 9.38H6.16147V11.844H7.56147C8.84947 11.844 9.82947 12.096 10.5015 12.656C11.1735 13.188 11.5375 14.028 11.5375 15.176C11.5375 16.128 11.2015 16.912 10.5575 17.556C9.82947 18.256 8.82147 18.62 7.56147 18.62C6.41347 18.62 5.48947 18.284 4.78947 17.64C4.00547 16.94 3.61347 15.932 3.55747 14.644H0.225469C0.393469 16.884 1.17747 18.62 2.57747 19.796C3.83747 20.86 5.51747 21.392 7.58947 21.392C9.77347 21.392 11.5375 20.776 12.8815 19.572C14.1695 18.396 14.8135 16.884 14.8135 15.036C14.8135 13.86 14.4775 12.88 13.8055 12.124C13.1895 11.396 12.2655 10.864 11.0895 10.5C13.3015 9.772 14.4215 8.316 14.4215 6.132C14.4215 4.396 13.8055 3.052 12.6015 2.072C11.3695 1.092 9.71747 0.615999 7.70147 0.615999Z" fill="white"/>
<path d="M2.85747 2.268L4.13784 3.80444L4.16235 3.78402L4.1862 3.76282L2.85747 2.268ZM0.617469 6.972L-1.37562 6.80591L-1.55613 8.972H0.617469V6.972ZM3.83747 6.972V8.972H5.66006L5.82887 7.15725L3.83747 6.972ZM5.01347 4.284L6.33048 5.78915L6.34639 5.77523L6.36201 5.76097L5.01347 4.284ZM10.3335 4.172L11.709 2.72009L11.6728 2.68587L11.6351 2.65349L10.3335 4.172ZM10.2495 8.624L11.5159 10.1719L11.5337 10.1574L11.5511 10.1425L10.2495 8.624ZM6.16147 9.38V7.38H4.16147V9.38H6.16147ZM6.16147 11.844H4.16147V13.844H6.16147V11.844ZM10.5015 12.656L9.2211 14.1924L9.24038 14.2085L9.26006 14.2241L10.5015 12.656ZM10.5575 17.556L11.9437 18.9977L11.9578 18.9841L11.9717 18.9702L10.5575 17.556ZM4.78947 17.64L6.14358 16.1681L6.13262 16.158L6.1215 16.1481L4.78947 17.64ZM3.55747 14.644L5.55558 14.5571L5.4724 12.644H3.55747V14.644ZM0.225469 14.644V12.644H-1.93015L-1.76893 14.7936L0.225469 14.644ZM2.57747 19.796L3.86783 18.2679L3.86385 18.2646L2.57747 19.796ZM12.8815 19.572L14.216 21.0617L14.223 21.0554L14.23 21.049L12.8815 19.572ZM13.8055 12.124L12.2787 13.4159L12.2944 13.4345L12.3107 13.4527L13.8055 12.124ZM11.0895 10.5L10.4642 8.60024L4.51431 10.5584L10.4981 12.4106L11.0895 10.5ZM12.6015 2.072L13.864 0.520875L13.8553 0.513786L13.8465 0.506796L12.6015 2.072ZM7.70147 -1.384C5.36444 -1.384 3.23119 -0.740106 1.52874 0.773181L4.1862 3.76282C5.00375 3.0361 6.1185 2.616 7.70147 2.616V-1.384ZM1.5771 0.731557C-0.258148 2.26093 -1.17257 4.3693 -1.37562 6.80591L2.61056 7.13809C2.74351 5.5427 3.28509 4.51507 4.13784 3.80444L1.5771 0.731557ZM0.617469 8.972H3.83747V4.972H0.617469V8.972ZM5.82887 7.15725C5.91055 6.2792 6.16376 5.93503 6.33048 5.78915L3.69646 2.77885C2.51918 3.80896 1.98839 5.2568 1.84607 6.78675L5.82887 7.15725ZM6.36201 5.76097C6.51663 5.6198 6.86026 5.416 7.72947 5.416V1.416C6.24668 1.416 4.79831 1.7722 3.66493 2.80703L6.36201 5.76097ZM7.72947 5.416C8.62368 5.416 8.94613 5.61701 9.03189 5.69051L11.6351 2.65349C10.5448 1.71899 9.13126 1.416 7.72947 1.416V5.416ZM8.95798 5.6239C8.99103 5.65522 9.14547 5.79781 9.14547 6.384H13.1455C13.1455 5.01019 12.7399 3.69678 11.709 2.72009L8.95798 5.6239ZM9.14547 6.384C9.14547 6.93148 8.98932 7.06997 8.94789 7.10549L11.5511 10.1425C12.6856 9.17002 13.1455 7.79652 13.1455 6.384H9.14547ZM8.98299 7.07608C8.86026 7.1765 8.48886 7.38 7.56147 7.38V11.38C8.98608 11.38 10.4067 11.0795 11.5159 10.1719L8.98299 7.07608ZM7.56147 7.38H6.16147V11.38H7.56147V7.38ZM4.16147 9.38V11.844H8.16147V9.38H4.16147ZM6.16147 13.844H7.56147V9.844H6.16147V13.844ZM7.56147 13.844C8.64135 13.844 9.06731 14.0643 9.2211 14.1924L11.7818 11.1196C10.5916 10.1277 9.05759 9.844 7.56147 9.844V13.844ZM9.26006 14.2241C9.33086 14.2801 9.53747 14.4644 9.53747 15.176H13.5375C13.5375 13.5916 13.0161 12.0959 11.7429 11.0879L9.26006 14.2241ZM9.53747 15.176C9.53747 15.5933 9.41518 15.8699 9.14326 16.1418L11.9717 18.9702C12.9878 17.9541 13.5375 16.6627 13.5375 15.176H9.53747ZM9.17125 16.1143C8.89516 16.3798 8.42628 16.62 7.56147 16.62V20.62C9.21666 20.62 10.7638 20.1322 11.9437 18.9977L9.17125 16.1143ZM7.56147 16.62C6.82651 16.62 6.41402 16.4169 6.14358 16.1681L3.43536 19.1119C4.56491 20.1511 6.00042 20.62 7.56147 20.62V16.62ZM6.1215 16.1481C5.85533 15.9105 5.59585 15.4832 5.55558 14.5571L1.55936 14.7309C1.63109 16.3808 2.15561 17.9695 3.45744 19.1319L6.1215 16.1481ZM3.55747 12.644H0.225469V16.644H3.55747V12.644ZM-1.76893 14.7936C-1.5712 17.43 -0.618204 19.7236 1.29108 21.3274L3.86385 18.2646C2.97314 17.5164 2.35814 16.338 2.21987 14.4944L-1.76893 14.7936ZM1.28711 21.3241C2.9953 22.7665 5.17355 23.392 7.58947 23.392V19.392C5.86138 19.392 4.67964 18.9535 3.86783 18.2679L1.28711 21.3241ZM7.58947 23.392C10.1682 23.392 12.4383 22.6541 14.216 21.0617L11.547 18.0823C10.6366 18.8979 9.37871 19.392 7.58947 19.392V23.392ZM14.23 21.049C15.9601 19.4693 16.8135 17.4083 16.8135 15.036H12.8135C12.8135 16.3597 12.3789 17.3227 11.5329 18.095L14.23 21.049ZM16.8135 15.036C16.8135 13.4616 16.3537 11.9804 15.3003 10.7953L12.3107 13.4527C12.6012 13.7796 12.8135 14.2584 12.8135 15.036H16.8135ZM15.3322 10.8321C14.3884 9.71666 13.0785 9.02203 11.6808 8.58943L10.4981 12.4106C11.4525 12.706 11.9905 13.0753 12.2787 13.4159L15.3322 10.8321ZM11.7147 12.3998C13.0987 11.9443 14.3131 11.2027 15.1739 10.0766C16.044 8.93834 16.4215 7.57876 16.4215 6.132H12.4215C12.4215 6.86924 12.2389 7.32965 11.996 7.64738C11.7439 7.97728 11.2923 8.32772 10.4642 8.60024L11.7147 12.3998ZM16.4215 6.132C16.4215 3.85558 15.5801 1.91771 13.864 0.520875L11.3389 3.62312C12.0308 4.18629 12.4215 4.93642 12.4215 6.132H16.4215ZM13.8465 0.506796C12.1595 -0.83517 10.0209 -1.384 7.70147 -1.384V2.616C9.41405 2.616 10.5795 3.01917 11.3564 3.6372L13.8465 0.506796Z" fill="#353D49" fill-opacity="0.5" mask="url(#path-1-outside-1_128_1888)"/>
</svg>
