<svg width="15" height="21" viewBox="0 0 15 21" fill="none" xmlns="http://www.w3.org/2000/svg">
<mask id="path-1-outside-1_128_1887" maskUnits="userSpaceOnUse" x="-2" y="-2" width="19" height="25" fill="black">
<rect fill="white" x="-2" y="-2" width="19" height="25"/>
<path d="M7.81347 0.615999C5.65747 0.615999 3.92147 1.344 2.60547 2.8C1.31747 4.172 0.673469 5.964 0.645469 8.204H3.92147C3.97747 6.636 4.31347 5.432 4.92947 4.648C5.54547 3.808 6.46947 3.388 7.70147 3.388C8.84947 3.388 9.71747 3.64 10.3055 4.172C10.8655 4.704 11.1735 5.516 11.1735 6.608C11.1735 7.728 10.7255 8.792 9.85747 9.772C9.29747 10.36 8.40147 11.116 7.11347 12.012C4.78947 13.608 3.24947 14.84 2.52147 15.68C1.17747 17.192 0.533469 18.956 0.533469 21H14.4775V18.116H4.62147C5.06947 17.108 6.30147 15.932 8.34547 14.588C10.3055 13.272 11.7055 12.208 12.4895 11.368C13.7775 9.94 14.4495 8.372 14.4495 6.636C14.4495 4.844 13.8335 3.416 12.6015 2.296C11.3415 1.176 9.74547 0.615999 7.81347 0.615999Z"/>
</mask>
<path d="M7.81347 0.615999C5.65747 0.615999 3.92147 1.344 2.60547 2.8C1.31747 4.172 0.673469 5.964 0.645469 8.204H3.92147C3.97747 6.636 4.31347 5.432 4.92947 4.648C5.54547 3.808 6.46947 3.388 7.70147 3.388C8.84947 3.388 9.71747 3.64 10.3055 4.172C10.8655 4.704 11.1735 5.516 11.1735 6.608C11.1735 7.728 10.7255 8.792 9.85747 9.772C9.29747 10.36 8.40147 11.116 7.11347 12.012C4.78947 13.608 3.24947 14.84 2.52147 15.68C1.17747 17.192 0.533469 18.956 0.533469 21H14.4775V18.116H4.62147C5.06947 17.108 6.30147 15.932 8.34547 14.588C10.3055 13.272 11.7055 12.208 12.4895 11.368C13.7775 9.94 14.4495 8.372 14.4495 6.636C14.4495 4.844 13.8335 3.416 12.6015 2.296C11.3415 1.176 9.74547 0.615999 7.81347 0.615999Z" fill="white"/>
<path d="M2.60547 2.8L4.06362 4.16887L4.07655 4.1551L4.08922 4.14108L2.60547 2.8ZM0.645469 8.204L-1.35437 8.179L-1.37969 10.204H0.645469V8.204ZM3.92147 8.204V10.204H5.85132L5.92019 8.27538L3.92147 8.204ZM4.92947 4.648L6.50211 5.88364L6.52263 5.85752L6.54228 5.83073L4.92947 4.648ZM10.3055 4.172L11.683 2.722L11.6653 2.70525L11.6473 2.68893L10.3055 4.172ZM9.85747 9.772L11.3057 11.1513L11.3307 11.1251L11.3546 11.0981L9.85747 9.772ZM7.11347 12.012L8.2457 13.6607L8.2556 13.6538L7.11347 12.012ZM2.52147 15.68L4.01629 17.0087L4.02463 16.9993L4.03285 16.9899L2.52147 15.68ZM0.533469 21H-1.46653V23H0.533469V21ZM14.4775 21V23H16.4775V21H14.4775ZM14.4775 18.116H16.4775V16.116H14.4775V18.116ZM4.62147 18.116L2.79385 17.3037L1.54395 20.116H4.62147V18.116ZM8.34547 14.588L9.44428 16.2591L9.45234 16.2538L9.46034 16.2484L8.34547 14.588ZM12.4895 11.368L13.9516 12.7326L13.9632 12.7202L13.9746 12.7075L12.4895 11.368ZM12.6015 2.296L13.9468 0.816119L13.9385 0.808602L13.9302 0.801179L12.6015 2.296ZM7.81347 -1.384C5.15424 -1.384 2.85674 -0.460677 1.12172 1.45892L4.08922 4.14108C4.9862 3.14868 6.1607 2.616 7.81347 2.616V-1.384ZM1.14732 1.43113C-0.550002 3.23915 -1.32147 5.54668 -1.35437 8.179L2.64531 8.229C2.66841 6.38132 3.18494 5.10485 4.06362 4.16887L1.14732 1.43113ZM0.645469 10.204H3.92147V6.204H0.645469V10.204ZM5.92019 8.27538C5.96952 6.89439 6.26363 6.18716 6.50211 5.88364L3.35683 3.41236C2.36331 4.67684 1.98542 6.37761 1.92274 8.13262L5.92019 8.27538ZM6.54228 5.83073C6.70973 5.60238 6.97455 5.388 7.70147 5.388V1.388C5.96439 1.388 4.3812 2.01362 3.31666 3.46527L6.54228 5.83073ZM7.70147 5.388C8.59793 5.388 8.89133 5.58965 8.96364 5.65507L11.6473 2.68893C10.5436 1.69035 9.10101 1.388 7.70147 1.388V5.388ZM8.92797 5.622C8.97655 5.66815 9.17347 5.8842 9.17347 6.608H13.1735C13.1735 5.1478 12.7544 3.73985 11.683 2.722L8.92797 5.622ZM9.17347 6.608C9.17347 7.14984 8.96908 7.75858 8.36029 8.44593L11.3546 11.0981C12.4819 9.82541 13.1735 8.30616 13.1735 6.608H9.17347ZM8.40919 8.39269C7.97566 8.8479 7.19742 9.51727 5.97134 10.3702L8.2556 13.6538C9.60552 12.7147 10.6193 11.8721 11.3057 11.1513L8.40919 8.39269ZM5.98125 10.3633C3.66512 11.9539 1.92562 13.3138 1.01009 14.3701L4.03285 16.9899C4.57331 16.3662 5.91381 15.2621 8.24568 13.6607L5.98125 10.3633ZM1.02665 14.3513C-0.657009 16.2454 -1.46653 18.488 -1.46653 21H2.53347C2.53347 19.424 3.01195 18.1386 4.01629 17.0087L1.02665 14.3513ZM0.533469 23H14.4775V19H0.533469V23ZM16.4775 21V18.116H12.4775V21H16.4775ZM14.4775 16.116H4.62147V20.116H14.4775V16.116ZM6.44909 18.9283C6.64234 18.4935 7.42472 17.587 9.44428 16.2591L7.24666 12.9169C5.17821 14.277 3.4966 15.7225 2.79385 17.3037L6.44909 18.9283ZM9.46034 16.2484C11.4187 14.9336 12.9943 13.7583 13.9516 12.7326L11.0274 10.0034C10.4166 10.6577 9.19226 11.6104 7.2306 12.9276L9.46034 16.2484ZM13.9746 12.7075C15.5369 10.9754 16.4495 8.94598 16.4495 6.636H12.4495C12.4495 7.79802 12.018 8.90456 11.0043 10.0285L13.9746 12.7075ZM16.4495 6.636C16.4495 4.31829 15.6229 2.33985 13.9468 0.816119L11.2561 3.77588C12.044 4.49215 12.4495 5.36971 12.4495 6.636H16.4495ZM13.9302 0.801179C12.2508 -0.691593 10.159 -1.384 7.81347 -1.384V2.616C9.33193 2.616 10.4321 3.04359 11.2727 3.79082L13.9302 0.801179Z" fill="#353D49" fill-opacity="0.5" mask="url(#path-1-outside-1_128_1887)"/>
</svg>
