<?xml version="1.0" encoding="utf-8"?>
<!-- Generator: Adobe Illustrator 22.0.1, SVG Export Plug-In . SVG Version: 6.00 Build 0)  -->
<svg version="1.1" id="图层_1" xmlns="http://www.w3.org/2000/svg" xmlns:xlink="http://www.w3.org/1999/xlink" x="0px" y="0px"
	 viewBox="0 0 64 64" style="enable-background:new 0 0 64 64;" xml:space="preserve">
<style type="text/css">
	.st0{fill:none;stroke:#000000;stroke-width:2;stroke-linecap:round;stroke-miterlimit:10;}
	.st1{fill:none;stroke:#000000;stroke-width:2;stroke-miterlimit:10;}
</style>
<g>
	<path d="M52.8,21.3h-16l5.2-9c0.3-0.5,0.1-1.1-0.4-1.4c-0.5-0.3-1.1-0.1-1.4,0.4L35.8,19c-0.2,0.4-0.8,0.4-1,0l-4.5-7.7
		c-0.3-0.5-0.9-0.6-1.4-0.4c-0.5,0.3-0.6,0.9-0.4,1.4l5.2,9H19.5c-0.6,0-1,0.4-1,1s0.4,1,1,1h33.3c0.1,0,0.2,0.1,0.2,0.2v27.6
		c0,0.1-0.1,0.2-0.2,0.2H11.2c-0.1,0-0.2-0.1-0.2-0.2V23.5c0-0.1,0.1-0.2,0.2-0.2h4.3c0.6,0,1-0.4,1-1s-0.4-1-1-1h-4.3
		c-1.2,0-2.2,1-2.2,2.2v27.6c0,1.2,1,2.2,2.2,2.2h41.6c1.2,0,2.2-1,2.2-2.2V23.5C55,22.2,54,21.3,52.8,21.3z"/>
	<path d="M14,27.5v19.6c0,0.7,0.5,1.2,1.2,1.2H44c0.7,0,1.2-0.5,1.2-1.2V27.5c0-0.7-0.5-1.2-1.2-1.2H15.2C14.5,26.3,14,26.8,14,27.5
		z M16,28.3h27.2v18H16V28.3z"/>
	<path d="M48,28.3h2c0.6,0,1-0.4,1-1c0-0.6-0.4-1-1-1h-2c-0.6,0-1,0.4-1,1C47,27.8,47.4,28.3,48,28.3z"/>
	<path d="M48,33.8h2c0.6,0,1-0.4,1-1s-0.4-1-1-1h-2c-0.6,0-1,0.4-1,1S47.4,33.8,48,33.8z"/>
	<path d="M34.7,35.5l-8.3-4.8c-0.6-0.4-1.4-0.4-2,0s-1,1-1,1.7V42c0,0.7,0.4,1.4,1,1.7c0.3,0.2,0.7,0.3,1,0.3c0.3,0,0.7-0.1,1-0.3
		l8.3-4.8c0.6-0.4,1-1,1-1.7S35.4,35.9,34.7,35.5z M25.5,42v-9.5l8.3,4.8L25.5,42z"/>
</g>
</svg>
