<svg width="108" height="108" viewBox="0 0 108 108" fill="none" xmlns="http://www.w3.org/2000/svg">
<circle cx="54" cy="54" r="53" fill="white" stroke="#1E8EF5" stroke-width="2"/>
<circle cx="54" cy="54" r="40" fill="white" stroke="#1E8EF5"/>
<circle cx="53.9992" cy="54" r="37.3" fill="white" stroke="#1E8EF5"/>
<circle cx="54.0004" cy="53.9999" r="34.6" fill="white" stroke="#1E8EF5"/>
<circle cx="53.9996" cy="54.0001" r="31.9" fill="white" stroke="#1E8EF5"/>
<rect x="7.19922" y="34.2" width="93.6" height="39.6" fill="white"/>
<line x1="4.5" y1="74.2" x2="103.5" y2="74.2" stroke="#1E8EF5"/>
<line x1="4.5" y1="33.7" x2="103.5" y2="33.7" stroke="#1E8EF5"/>
<path d="M54.8984 2.69995L55.9088 5.80937H59.1782L56.5332 7.7311L57.5435 10.8405L54.8984 8.9188L52.2534 10.8405L53.2637 7.7311L50.6187 5.80937H53.8881L54.8984 2.69995Z" fill="#1E8EF5"/>
<path d="M39.3349 5.55309L41.1156 8.29507L44.2737 7.44888L42.2161 9.98971L43.9968 12.7317L40.9445 11.56L38.887 14.1009L39.0581 10.8359L36.0058 9.66424L39.1638 8.81805L39.3349 5.55309Z" fill="#1E8EF5"/>
<path d="M70.4639 5.55336L70.635 8.81832L73.793 9.66451L70.7407 10.8362L70.9118 14.1011L68.8543 11.5603L65.802 12.732L67.5827 9.98998L65.5252 7.44915L68.6832 8.29534L70.4639 5.55336Z" fill="#1E8EF5"/>
<path d="M54.8984 105.412L55.9088 102.302H59.1782L56.5332 100.381L57.5435 97.2713L54.8984 99.193L52.2534 97.2713L53.2637 100.381L50.6187 102.302H53.8881L54.8984 105.412Z" fill="#1E8EF5"/>
<path d="M39.3349 102.559L41.1156 99.8167L44.2737 100.663L42.2161 98.1221L43.9968 95.3801L40.9445 96.5518L38.887 94.011L39.0581 97.2759L36.0058 98.4476L39.1638 99.2938L39.3349 102.559Z" fill="#1E8EF5"/>
<path d="M70.4639 102.558L70.635 99.2935L73.793 98.4473L70.7407 97.2756L70.9118 94.0107L68.8543 96.5515L65.802 95.3799L67.5827 98.1218L65.5252 100.663L68.6832 99.8165L70.4639 102.558Z" fill="#1E8EF5"/>
</svg>
