<svg width="108" height="108" viewBox="0 0 108 108" fill="none" xmlns="http://www.w3.org/2000/svg">
<circle cx="54" cy="54" r="53" fill="white" stroke="#1E8EF5" stroke-width="2"/>
<circle cx="54" cy="54" r="40" fill="white" stroke="#1E8EF5"/>
<circle cx="53.9992" cy="54" r="37.3" fill="white" stroke="#1E8EF5"/>
<circle cx="54.0004" cy="53.9999" r="34.6" fill="white" stroke="#1E8EF5"/>
<circle cx="53.9996" cy="54.0001" r="31.9" fill="white" stroke="#1E8EF5"/>
<rect x="7.19922" y="34.2" width="93.6" height="39.6" fill="white"/>
<line x1="4.5" y1="74.2" x2="103.5" y2="74.2" stroke="#1E8EF5"/>
<line x1="4.5" y1="33.7" x2="103.5" y2="33.7" stroke="#1E8EF5"/>
<path d="M54.8984 2.69995L55.9088 5.80937H59.1782L56.5332 7.7311L57.5435 10.8405L54.8984 8.9188L52.2534 10.8405L53.2637 7.7311L50.6187 5.80937H53.8881L54.8984 2.69995Z" fill="#1E8EF5"/>
<path d="M39.3349 5.55309L41.1156 8.29507L44.2737 7.44888L42.2161 9.98971L43.9968 12.7317L40.9445 11.56L38.887 14.1009L39.0581 10.8359L36.0058 9.66424L39.1638 8.81805L39.3349 5.55309Z" fill="#1E8EF5"/>
<path d="M70.4639 5.55336L70.635 8.81832L73.793 9.66451L70.7407 10.8362L70.9118 14.1011L68.8543 11.5603L65.802 12.732L67.5827 9.98998L65.5252 7.44915L68.6832 8.29534L70.4639 5.55336Z" fill="#1E8EF5"/>
<path d="M54.8984 105.412L55.9088 102.302H59.1782L56.5332 100.381L57.5435 97.2713L54.8984 99.193L52.2534 97.2713L53.2637 100.381L50.6187 102.302H53.8881L54.8984 105.412Z" fill="#1E8EF5"/>
<path d="M39.3349 102.559L41.1156 99.8167L44.2737 100.663L42.2161 98.1221L43.9968 95.3801L40.9445 96.5518L38.887 94.011L39.0581 97.2759L36.0058 98.4476L39.1638 99.2938L39.3349 102.559Z" fill="#1E8EF5"/>
<path d="M70.4639 102.558L70.635 99.2935L73.793 98.4473L70.7407 97.2756L70.9118 94.0107L68.8543 96.5515L65.802 95.3799L67.5827 98.1218L65.5252 100.663L68.6832 99.8165L70.4639 102.558Z" fill="#1E8EF5"/>
<path d="M35.716 54.228V42.244H14.352V45.044H32.748V51.428H18.44V47.732H15.528V62.236C15.528 64.756 16.704 66.016 19.112 66.016H34.68C35.8 65.96 36.724 65.624 37.396 65.008C37.956 64.392 38.432 62.292 38.796 58.708L35.94 57.812C35.772 60.668 35.52 62.32 35.128 62.712C34.736 63.048 34.316 63.216 33.868 63.216H19.952C18.944 63.216 18.44 62.712 18.44 61.704V54.228H35.716ZM66.096 43.672H55.484C55.204 42.692 54.896 41.796 54.588 40.984L51.256 41.544C51.592 42.188 51.9 42.888 52.18 43.672H41.848V50.42H44.788V46.5H63.156V50.42H66.096V43.672ZM45.964 48.964V51.764H61.924V48.964H45.964ZM41.708 54.144V56.972H48.96C48.848 58.904 48.288 60.472 47.252 61.704C46.216 62.824 44.2 63.748 41.204 64.504L42.884 67.136C45.964 66.296 48.176 65.092 49.548 63.58C50.948 61.928 51.732 59.716 51.872 56.972H55.876V63.104C55.876 65.4 56.884 66.548 58.9 66.548H63.8C64.724 66.548 65.424 66.268 65.872 65.764C66.376 65.232 66.712 63.524 66.908 60.668L64.136 59.8C64.08 61.704 63.968 62.852 63.856 63.216C63.716 63.58 63.52 63.776 63.24 63.776H59.796C59.124 63.776 58.788 63.356 58.788 62.516V56.972H66.32V54.144H41.708ZM89.252 40.76L87.404 42.524C88.496 43.364 89.392 44.204 90.092 44.988H86.144C86.088 43.7 86.06 42.356 86.06 40.928H83.092C83.092 42.328 83.092 43.7 83.148 44.988H71.612V54.312C71.528 58.848 70.632 62.404 68.896 64.952L71.108 66.94C73.264 63.776 74.412 59.604 74.552 54.396H78.5C78.444 57.252 78.36 59.016 78.192 59.66C78.052 60.22 77.744 60.5 77.296 60.528C76.512 60.528 75.588 60.472 74.468 60.388L75.364 63.048C76.204 63.132 76.96 63.188 77.632 63.188C79.144 63.16 80.124 62.572 80.572 61.396C81.048 60.108 81.328 56.86 81.412 51.652H74.552V47.76H83.288C83.512 51.12 83.904 53.948 84.52 56.188C84.828 57.336 85.164 58.4 85.556 59.38C83.708 61.62 81.468 63.328 78.836 64.504L80.516 66.968C82.924 65.904 85.052 64.364 86.9 62.348C87.236 62.964 87.628 63.524 88.02 64.028C89.392 65.68 90.68 66.52 91.912 66.52C93.312 66.52 94.348 64.532 95.076 60.584L92.444 59.156C92.08 61.844 91.744 63.188 91.464 63.188C91.044 63.188 90.428 62.572 89.644 61.368C89.364 60.948 89.084 60.444 88.832 59.884C90.54 57.392 91.94 54.368 93.032 50.812L90.372 49.664C89.644 52.184 88.72 54.452 87.6 56.412C87.488 56.02 87.376 55.656 87.292 55.264C86.844 53.528 86.508 51.008 86.284 47.76H94.516V44.988H91.184L92.472 43.672C91.576 42.692 90.512 41.712 89.252 40.76Z" fill="#1E8EF5"/>
</svg>
