<svg width="46" height="46" viewBox="0 0 46 46" fill="none" xmlns="http://www.w3.org/2000/svg">
<path d="M6 9.6665C6 8.56193 6.89543 7.6665 8 7.6665H17.7083C17.7083 7.6665 18.6667 12.4582 23.4583 12.4582C28.25 12.4582 29.2083 7.6665 29.2083 7.6665H38.3333C39.4379 7.6665 40.3333 8.56193 40.3333 9.6665V36.3332C40.3333 37.4377 39.4379 38.3332 38.3333 38.3332H29.2083C29.2083 38.3332 28.25 33.5415 23.4583 33.5415C18.6667 33.5415 17.7083 38.3332 17.7083 38.3332H8C6.89543 38.3332 6 37.4377 6 36.3332V9.6665Z" stroke="currentColor" stroke-width="2.5" stroke-linecap="round" stroke-linejoin="round"/>
<path d="M23 18.2085V20.1252" stroke="currentColor" stroke-width="2.5" stroke-linecap="round"/>
<path d="M23 25.875V27.7917" stroke="currentColor" stroke-width="2.5" stroke-linecap="round"/>
</svg>
